<mxfile host="app.diagrams.net" agent="Mozilla/5.0 (Windows NT 10.0; Win64; x64; rv:129.0) Gecko/20100101 Firefox/129.0" version="24.7.7">
  <diagram name="Page-1" id="RqPp55l7aPgEUDHKzj_P">
    <mxGraphModel dx="1533" dy="1731" grid="1" gridSize="10" guides="1" tooltips="1" connect="1" arrows="1" fold="1" page="1" pageScale="1" pageWidth="827" pageHeight="1169" math="1" shadow="0">
      <root>
        <mxCell id="0" />
        <mxCell id="1" parent="0" />
        <mxCell id="rwSxF8z0icLIVZ8mAubm-23" value="" style="endArrow=none;html=1;rounded=0;strokeWidth=5;dashed=1;dashPattern=1 1;strokeColor=#999999;" edge="1" parent="1">
          <mxGeometry width="50" height="50" relative="1" as="geometry">
            <mxPoint x="2880" y="430" as="sourcePoint" />
            <mxPoint x="3660" y="340" as="targetPoint" />
            <Array as="points">
              <mxPoint x="2940" y="690" />
              <mxPoint x="3000" y="430" />
              <mxPoint x="3060" y="410" />
              <mxPoint x="3120" y="400" />
              <mxPoint x="3180" y="420" />
              <mxPoint x="3240" y="400" />
              <mxPoint x="3300" y="440" />
              <mxPoint x="3360" y="480" />
              <mxPoint x="3420" y="620" />
              <mxPoint x="3480" y="680" />
              <mxPoint x="3540" y="340" />
              <mxPoint x="3600" y="320" />
            </Array>
          </mxGeometry>
        </mxCell>
        <mxCell id="rwSxF8z0icLIVZ8mAubm-1" value="" style="endArrow=none;html=1;rounded=0;strokeWidth=8;" edge="1" parent="1">
          <mxGeometry width="50" height="50" relative="1" as="geometry">
            <mxPoint x="2880" y="370" as="sourcePoint" />
            <mxPoint x="3660" y="360" as="targetPoint" />
            <Array as="points">
              <mxPoint x="2940" y="400" />
              <mxPoint x="3000" y="360" />
              <mxPoint x="3060" y="380" />
              <mxPoint x="3120" y="690" />
              <mxPoint x="3180" y="620" />
              <mxPoint x="3230" y="710" />
              <mxPoint x="3300" y="330" />
              <mxPoint x="3360" y="280" />
              <mxPoint x="3420" y="270" />
              <mxPoint x="3480" y="380" />
              <mxPoint x="3540" y="440" />
              <mxPoint x="3600" y="380" />
            </Array>
          </mxGeometry>
        </mxCell>
        <mxCell id="rwSxF8z0icLIVZ8mAubm-3" value="" style="endArrow=classic;html=1;rounded=0;strokeWidth=5;" edge="1" parent="1">
          <mxGeometry width="50" height="50" relative="1" as="geometry">
            <mxPoint x="2840" y="740" as="sourcePoint" />
            <mxPoint x="3720" y="740" as="targetPoint" />
          </mxGeometry>
        </mxCell>
        <mxCell id="rwSxF8z0icLIVZ8mAubm-4" value="" style="endArrow=classic;html=1;rounded=0;strokeWidth=5;" edge="1" parent="1">
          <mxGeometry width="50" height="50" relative="1" as="geometry">
            <mxPoint x="2841" y="741" as="sourcePoint" />
            <mxPoint x="2841" y="342" as="targetPoint" />
          </mxGeometry>
        </mxCell>
        <mxCell id="rwSxF8z0icLIVZ8mAubm-8" value="" style="endArrow=none;html=1;rounded=0;strokeWidth=6;" edge="1" parent="1">
          <mxGeometry width="50" height="50" relative="1" as="geometry">
            <mxPoint x="2880" y="760" as="sourcePoint" />
            <mxPoint x="2880" y="720" as="targetPoint" />
          </mxGeometry>
        </mxCell>
        <mxCell id="rwSxF8z0icLIVZ8mAubm-9" value="" style="endArrow=none;html=1;rounded=0;strokeWidth=6;" edge="1" parent="1">
          <mxGeometry width="50" height="50" relative="1" as="geometry">
            <mxPoint x="2940" y="760" as="sourcePoint" />
            <mxPoint x="2940" y="720" as="targetPoint" />
          </mxGeometry>
        </mxCell>
        <mxCell id="rwSxF8z0icLIVZ8mAubm-10" value="" style="endArrow=none;html=1;rounded=0;strokeWidth=6;" edge="1" parent="1">
          <mxGeometry width="50" height="50" relative="1" as="geometry">
            <mxPoint x="3000" y="760" as="sourcePoint" />
            <mxPoint x="3000" y="720" as="targetPoint" />
          </mxGeometry>
        </mxCell>
        <mxCell id="rwSxF8z0icLIVZ8mAubm-11" value="" style="endArrow=none;html=1;rounded=0;strokeWidth=6;" edge="1" parent="1">
          <mxGeometry width="50" height="50" relative="1" as="geometry">
            <mxPoint x="3060" y="760" as="sourcePoint" />
            <mxPoint x="3060" y="720" as="targetPoint" />
          </mxGeometry>
        </mxCell>
        <mxCell id="rwSxF8z0icLIVZ8mAubm-12" value="" style="endArrow=none;html=1;rounded=0;strokeWidth=6;" edge="1" parent="1">
          <mxGeometry width="50" height="50" relative="1" as="geometry">
            <mxPoint x="3120" y="760" as="sourcePoint" />
            <mxPoint x="3120" y="720" as="targetPoint" />
          </mxGeometry>
        </mxCell>
        <mxCell id="rwSxF8z0icLIVZ8mAubm-13" value="" style="endArrow=none;html=1;rounded=0;strokeWidth=6;" edge="1" parent="1">
          <mxGeometry width="50" height="50" relative="1" as="geometry">
            <mxPoint x="3180" y="760" as="sourcePoint" />
            <mxPoint x="3180" y="720" as="targetPoint" />
          </mxGeometry>
        </mxCell>
        <mxCell id="rwSxF8z0icLIVZ8mAubm-14" value="" style="endArrow=none;html=1;rounded=0;strokeWidth=6;" edge="1" parent="1">
          <mxGeometry width="50" height="50" relative="1" as="geometry">
            <mxPoint x="3240" y="760" as="sourcePoint" />
            <mxPoint x="3240" y="720" as="targetPoint" />
          </mxGeometry>
        </mxCell>
        <mxCell id="rwSxF8z0icLIVZ8mAubm-15" value="" style="endArrow=none;html=1;rounded=0;strokeWidth=6;" edge="1" parent="1">
          <mxGeometry width="50" height="50" relative="1" as="geometry">
            <mxPoint x="3300" y="760" as="sourcePoint" />
            <mxPoint x="3300" y="720" as="targetPoint" />
          </mxGeometry>
        </mxCell>
        <mxCell id="rwSxF8z0icLIVZ8mAubm-16" value="" style="endArrow=none;html=1;rounded=0;strokeWidth=6;" edge="1" parent="1">
          <mxGeometry width="50" height="50" relative="1" as="geometry">
            <mxPoint x="3360" y="760" as="sourcePoint" />
            <mxPoint x="3360" y="720" as="targetPoint" />
          </mxGeometry>
        </mxCell>
        <mxCell id="rwSxF8z0icLIVZ8mAubm-17" value="" style="endArrow=none;html=1;rounded=0;strokeWidth=6;" edge="1" parent="1">
          <mxGeometry width="50" height="50" relative="1" as="geometry">
            <mxPoint x="3420" y="760" as="sourcePoint" />
            <mxPoint x="3420" y="720" as="targetPoint" />
          </mxGeometry>
        </mxCell>
        <mxCell id="rwSxF8z0icLIVZ8mAubm-18" value="" style="endArrow=none;html=1;rounded=0;strokeWidth=6;" edge="1" parent="1">
          <mxGeometry width="50" height="50" relative="1" as="geometry">
            <mxPoint x="3480" y="760" as="sourcePoint" />
            <mxPoint x="3480" y="720" as="targetPoint" />
          </mxGeometry>
        </mxCell>
        <mxCell id="rwSxF8z0icLIVZ8mAubm-19" value="" style="endArrow=none;html=1;rounded=0;strokeWidth=6;" edge="1" parent="1">
          <mxGeometry width="50" height="50" relative="1" as="geometry">
            <mxPoint x="3540" y="760" as="sourcePoint" />
            <mxPoint x="3540" y="720" as="targetPoint" />
          </mxGeometry>
        </mxCell>
        <mxCell id="rwSxF8z0icLIVZ8mAubm-20" value="" style="endArrow=none;html=1;rounded=0;strokeWidth=6;" edge="1" parent="1">
          <mxGeometry width="50" height="50" relative="1" as="geometry">
            <mxPoint x="3600" y="760" as="sourcePoint" />
            <mxPoint x="3600" y="720" as="targetPoint" />
          </mxGeometry>
        </mxCell>
        <mxCell id="rwSxF8z0icLIVZ8mAubm-21" value="" style="endArrow=none;html=1;rounded=0;strokeWidth=6;" edge="1" parent="1">
          <mxGeometry width="50" height="50" relative="1" as="geometry">
            <mxPoint x="3660" y="760" as="sourcePoint" />
            <mxPoint x="3660" y="720" as="targetPoint" />
          </mxGeometry>
        </mxCell>
        <mxCell id="rwSxF8z0icLIVZ8mAubm-26" value="" style="endArrow=classic;html=1;rounded=0;strokeWidth=5;" edge="1" parent="1">
          <mxGeometry width="50" height="50" relative="1" as="geometry">
            <mxPoint x="1820" y="740" as="sourcePoint" />
            <mxPoint x="2700" y="740" as="targetPoint" />
          </mxGeometry>
        </mxCell>
        <mxCell id="rwSxF8z0icLIVZ8mAubm-27" value="" style="endArrow=classic;html=1;rounded=0;strokeWidth=5;" edge="1" parent="1">
          <mxGeometry width="50" height="50" relative="1" as="geometry">
            <mxPoint x="1821" y="741" as="sourcePoint" />
            <mxPoint x="1821" y="342" as="targetPoint" />
          </mxGeometry>
        </mxCell>
        <mxCell id="rwSxF8z0icLIVZ8mAubm-29" value="" style="endArrow=none;html=1;rounded=0;strokeWidth=6;" edge="1" parent="1">
          <mxGeometry width="50" height="50" relative="1" as="geometry">
            <mxPoint x="1860" y="760" as="sourcePoint" />
            <mxPoint x="1860" y="720" as="targetPoint" />
          </mxGeometry>
        </mxCell>
        <mxCell id="rwSxF8z0icLIVZ8mAubm-30" value="" style="endArrow=none;html=1;rounded=0;strokeWidth=6;" edge="1" parent="1">
          <mxGeometry width="50" height="50" relative="1" as="geometry">
            <mxPoint x="1920" y="760" as="sourcePoint" />
            <mxPoint x="1920" y="720" as="targetPoint" />
          </mxGeometry>
        </mxCell>
        <mxCell id="rwSxF8z0icLIVZ8mAubm-31" value="" style="endArrow=none;html=1;rounded=0;strokeWidth=6;" edge="1" parent="1">
          <mxGeometry width="50" height="50" relative="1" as="geometry">
            <mxPoint x="1980" y="760" as="sourcePoint" />
            <mxPoint x="1980" y="720" as="targetPoint" />
          </mxGeometry>
        </mxCell>
        <mxCell id="rwSxF8z0icLIVZ8mAubm-32" value="" style="endArrow=none;html=1;rounded=0;strokeWidth=6;" edge="1" parent="1">
          <mxGeometry width="50" height="50" relative="1" as="geometry">
            <mxPoint x="2040" y="760" as="sourcePoint" />
            <mxPoint x="2040" y="720" as="targetPoint" />
          </mxGeometry>
        </mxCell>
        <mxCell id="rwSxF8z0icLIVZ8mAubm-33" value="" style="endArrow=none;html=1;rounded=0;strokeWidth=6;" edge="1" parent="1">
          <mxGeometry width="50" height="50" relative="1" as="geometry">
            <mxPoint x="2100" y="760" as="sourcePoint" />
            <mxPoint x="2100" y="720" as="targetPoint" />
          </mxGeometry>
        </mxCell>
        <mxCell id="rwSxF8z0icLIVZ8mAubm-34" value="" style="endArrow=none;html=1;rounded=0;strokeWidth=6;" edge="1" parent="1">
          <mxGeometry width="50" height="50" relative="1" as="geometry">
            <mxPoint x="2160" y="760" as="sourcePoint" />
            <mxPoint x="2160" y="720" as="targetPoint" />
          </mxGeometry>
        </mxCell>
        <mxCell id="rwSxF8z0icLIVZ8mAubm-35" value="" style="endArrow=none;html=1;rounded=0;strokeWidth=6;" edge="1" parent="1">
          <mxGeometry width="50" height="50" relative="1" as="geometry">
            <mxPoint x="2220" y="760" as="sourcePoint" />
            <mxPoint x="2220" y="720" as="targetPoint" />
          </mxGeometry>
        </mxCell>
        <mxCell id="rwSxF8z0icLIVZ8mAubm-36" value="" style="endArrow=none;html=1;rounded=0;strokeWidth=6;" edge="1" parent="1">
          <mxGeometry width="50" height="50" relative="1" as="geometry">
            <mxPoint x="2280" y="760" as="sourcePoint" />
            <mxPoint x="2280" y="720" as="targetPoint" />
          </mxGeometry>
        </mxCell>
        <mxCell id="rwSxF8z0icLIVZ8mAubm-37" value="" style="endArrow=none;html=1;rounded=0;strokeWidth=6;" edge="1" parent="1">
          <mxGeometry width="50" height="50" relative="1" as="geometry">
            <mxPoint x="2340" y="760" as="sourcePoint" />
            <mxPoint x="2340" y="720" as="targetPoint" />
          </mxGeometry>
        </mxCell>
        <mxCell id="rwSxF8z0icLIVZ8mAubm-38" value="" style="endArrow=none;html=1;rounded=0;strokeWidth=6;" edge="1" parent="1">
          <mxGeometry width="50" height="50" relative="1" as="geometry">
            <mxPoint x="2400" y="760" as="sourcePoint" />
            <mxPoint x="2400" y="720" as="targetPoint" />
          </mxGeometry>
        </mxCell>
        <mxCell id="rwSxF8z0icLIVZ8mAubm-39" value="" style="endArrow=none;html=1;rounded=0;strokeWidth=6;" edge="1" parent="1">
          <mxGeometry width="50" height="50" relative="1" as="geometry">
            <mxPoint x="2460" y="760" as="sourcePoint" />
            <mxPoint x="2460" y="720" as="targetPoint" />
          </mxGeometry>
        </mxCell>
        <mxCell id="rwSxF8z0icLIVZ8mAubm-40" value="" style="endArrow=none;html=1;rounded=0;strokeWidth=6;" edge="1" parent="1">
          <mxGeometry width="50" height="50" relative="1" as="geometry">
            <mxPoint x="2520" y="760" as="sourcePoint" />
            <mxPoint x="2520" y="720" as="targetPoint" />
          </mxGeometry>
        </mxCell>
        <mxCell id="rwSxF8z0icLIVZ8mAubm-41" value="" style="endArrow=none;html=1;rounded=0;strokeWidth=6;" edge="1" parent="1">
          <mxGeometry width="50" height="50" relative="1" as="geometry">
            <mxPoint x="2580" y="760" as="sourcePoint" />
            <mxPoint x="2580" y="720" as="targetPoint" />
          </mxGeometry>
        </mxCell>
        <mxCell id="rwSxF8z0icLIVZ8mAubm-42" value="" style="endArrow=none;html=1;rounded=0;strokeWidth=6;" edge="1" parent="1">
          <mxGeometry width="50" height="50" relative="1" as="geometry">
            <mxPoint x="2640" y="760" as="sourcePoint" />
            <mxPoint x="2640" y="720" as="targetPoint" />
          </mxGeometry>
        </mxCell>
        <mxCell id="rwSxF8z0icLIVZ8mAubm-43" value="" style="endArrow=none;html=1;rounded=0;strokeWidth=5;dashed=1;dashPattern=1 1;fontColor=#999999;strokeColor=#999999;" edge="1" parent="1">
          <mxGeometry width="50" height="50" relative="1" as="geometry">
            <mxPoint x="1860" y="430" as="sourcePoint" />
            <mxPoint x="2630" y="500" as="targetPoint" />
            <Array as="points">
              <mxPoint x="1920" y="420" />
              <mxPoint x="1980" y="680" />
              <mxPoint x="2040" y="660" />
              <mxPoint x="2100" y="600" />
              <mxPoint x="2160" y="480" />
              <mxPoint x="2210" y="680" />
              <mxPoint x="2280" y="650" />
              <mxPoint x="2340" y="590" />
              <mxPoint x="2400" y="670" />
              <mxPoint x="2460" y="670" />
              <mxPoint x="2520" y="550" />
              <mxPoint x="2580" y="500" />
            </Array>
          </mxGeometry>
        </mxCell>
        <mxCell id="rwSxF8z0icLIVZ8mAubm-44" value="" style="rounded=1;whiteSpace=wrap;html=1;" vertex="1" parent="1">
          <mxGeometry x="1820" y="160" width="430" height="120" as="geometry" />
        </mxCell>
        <mxCell id="rwSxF8z0icLIVZ8mAubm-45" value="" style="endArrow=none;html=1;rounded=0;strokeWidth=8;" edge="1" parent="1">
          <mxGeometry width="50" height="50" relative="1" as="geometry">
            <mxPoint x="1830" y="190" as="sourcePoint" />
            <mxPoint x="1900" y="190" as="targetPoint" />
          </mxGeometry>
        </mxCell>
        <mxCell id="rwSxF8z0icLIVZ8mAubm-46" value="" style="endArrow=none;html=1;rounded=0;strokeWidth=5;dashed=1;dashPattern=1 1;strokeColor=#999999;" edge="1" parent="1">
          <mxGeometry width="50" height="50" relative="1" as="geometry">
            <mxPoint x="1830" y="250" as="sourcePoint" />
            <mxPoint x="1900" y="250" as="targetPoint" />
          </mxGeometry>
        </mxCell>
        <mxCell id="rwSxF8z0icLIVZ8mAubm-48" value="&#xa;&lt;font style=&quot;font-size: 30px;&quot;&gt;\(\text{Ambiguous curve}\)&lt;/font&gt;&#xa;&#xa;" style="text;html=1;align=left;verticalAlign=middle;whiteSpace=wrap;rounded=0;" vertex="1" parent="1">
          <mxGeometry x="1910" y="176.5" width="290" height="50" as="geometry" />
        </mxCell>
        <mxCell id="rwSxF8z0icLIVZ8mAubm-49" value="&lt;br&gt;&lt;font style=&quot;font-size: 30px;&quot;&gt;\(\text{Non ambiguous curve}\)&lt;/font&gt;&lt;div&gt;&lt;br&gt;&lt;/div&gt;" style="text;html=1;align=left;verticalAlign=middle;whiteSpace=wrap;rounded=0;" vertex="1" parent="1">
          <mxGeometry x="1910" y="220" width="330" height="50" as="geometry" />
        </mxCell>
        <mxCell id="rwSxF8z0icLIVZ8mAubm-50" value="" style="rounded=1;whiteSpace=wrap;html=1;" vertex="1" parent="1">
          <mxGeometry x="2820" y="170" width="340" height="120" as="geometry" />
        </mxCell>
        <mxCell id="rwSxF8z0icLIVZ8mAubm-51" value="" style="endArrow=none;html=1;rounded=0;strokeWidth=8;" edge="1" parent="1">
          <mxGeometry width="50" height="50" relative="1" as="geometry">
            <mxPoint x="2830" y="200" as="sourcePoint" />
            <mxPoint x="2900" y="200" as="targetPoint" />
          </mxGeometry>
        </mxCell>
        <mxCell id="rwSxF8z0icLIVZ8mAubm-52" value="" style="endArrow=none;html=1;rounded=0;strokeWidth=5;dashed=1;dashPattern=1 1;strokeColor=#999999;" edge="1" parent="1">
          <mxGeometry width="50" height="50" relative="1" as="geometry">
            <mxPoint x="2830" y="260" as="sourcePoint" />
            <mxPoint x="2900" y="260" as="targetPoint" />
          </mxGeometry>
        </mxCell>
        <mxCell id="rwSxF8z0icLIVZ8mAubm-53" value="&lt;br&gt;&lt;font style=&quot;font-size: 30px;&quot;&gt;\(\text{Risky curve}\)&lt;/font&gt;&lt;div&gt;&lt;br/&gt;&lt;/div&gt;" style="text;html=1;align=left;verticalAlign=middle;whiteSpace=wrap;rounded=0;" vertex="1" parent="1">
          <mxGeometry x="2910" y="186.5" width="210" height="50" as="geometry" />
        </mxCell>
        <mxCell id="rwSxF8z0icLIVZ8mAubm-54" value="&lt;br&gt;&lt;font style=&quot;font-size: 30px;&quot;&gt;\(\text{Non risky curve}\)&lt;/font&gt;&lt;div&gt;&lt;br&gt;&lt;/div&gt;" style="text;html=1;align=left;verticalAlign=middle;whiteSpace=wrap;rounded=0;" vertex="1" parent="1">
          <mxGeometry x="2910" y="230" width="240" height="50" as="geometry" />
        </mxCell>
        <mxCell id="rwSxF8z0icLIVZ8mAubm-58" value="" style="endArrow=none;html=1;rounded=0;strokeWidth=8;" edge="1" parent="1">
          <mxGeometry width="50" height="50" relative="1" as="geometry">
            <mxPoint x="1860" y="370" as="sourcePoint" />
            <mxPoint x="2640" y="360" as="targetPoint" />
            <Array as="points">
              <mxPoint x="1920" y="400" />
              <mxPoint x="1980" y="360" />
              <mxPoint x="2040" y="380" />
              <mxPoint x="2100" y="690" />
              <mxPoint x="2160" y="320" />
              <mxPoint x="2220" y="300" />
              <mxPoint x="2280" y="330" />
              <mxPoint x="2340" y="280" />
              <mxPoint x="2400" y="270" />
              <mxPoint x="2460" y="380" />
              <mxPoint x="2520" y="440" />
              <mxPoint x="2580" y="380" />
            </Array>
          </mxGeometry>
        </mxCell>
        <mxCell id="rwSxF8z0icLIVZ8mAubm-65" value="" style="ellipse;whiteSpace=wrap;html=1;aspect=fixed;" vertex="1" parent="1">
          <mxGeometry x="2095" y="685" width="10" height="10" as="geometry" />
        </mxCell>
        <mxCell id="rwSxF8z0icLIVZ8mAubm-66" value="" style="ellipse;whiteSpace=wrap;html=1;aspect=fixed;" vertex="1" parent="1">
          <mxGeometry x="2035" y="375" width="10" height="10" as="geometry" />
        </mxCell>
        <mxCell id="rwSxF8z0icLIVZ8mAubm-67" value="" style="ellipse;whiteSpace=wrap;html=1;aspect=fixed;" vertex="1" parent="1">
          <mxGeometry x="1855" y="365" width="10" height="10" as="geometry" />
        </mxCell>
        <mxCell id="rwSxF8z0icLIVZ8mAubm-68" value="" style="ellipse;whiteSpace=wrap;html=1;aspect=fixed;" vertex="1" parent="1">
          <mxGeometry x="1915" y="395" width="10" height="10" as="geometry" />
        </mxCell>
        <mxCell id="rwSxF8z0icLIVZ8mAubm-69" value="" style="ellipse;whiteSpace=wrap;html=1;aspect=fixed;" vertex="1" parent="1">
          <mxGeometry x="1975" y="355" width="10" height="10" as="geometry" />
        </mxCell>
        <mxCell id="rwSxF8z0icLIVZ8mAubm-70" value="" style="ellipse;whiteSpace=wrap;html=1;aspect=fixed;" vertex="1" parent="1">
          <mxGeometry x="2275" y="325" width="10" height="10" as="geometry" />
        </mxCell>
        <mxCell id="rwSxF8z0icLIVZ8mAubm-71" value="" style="ellipse;whiteSpace=wrap;html=1;aspect=fixed;" vertex="1" parent="1">
          <mxGeometry x="2335" y="275" width="10" height="10" as="geometry" />
        </mxCell>
        <mxCell id="rwSxF8z0icLIVZ8mAubm-72" value="" style="ellipse;whiteSpace=wrap;html=1;aspect=fixed;" vertex="1" parent="1">
          <mxGeometry x="2395" y="265" width="10" height="10" as="geometry" />
        </mxCell>
        <mxCell id="rwSxF8z0icLIVZ8mAubm-73" value="" style="ellipse;whiteSpace=wrap;html=1;aspect=fixed;" vertex="1" parent="1">
          <mxGeometry x="2455" y="375" width="10" height="10" as="geometry" />
        </mxCell>
        <mxCell id="rwSxF8z0icLIVZ8mAubm-74" value="" style="ellipse;whiteSpace=wrap;html=1;aspect=fixed;" vertex="1" parent="1">
          <mxGeometry x="2515" y="435" width="10" height="10" as="geometry" />
        </mxCell>
        <mxCell id="rwSxF8z0icLIVZ8mAubm-75" value="" style="ellipse;whiteSpace=wrap;html=1;aspect=fixed;" vertex="1" parent="1">
          <mxGeometry x="2575" y="375" width="10" height="10" as="geometry" />
        </mxCell>
        <mxCell id="rwSxF8z0icLIVZ8mAubm-76" value="" style="ellipse;whiteSpace=wrap;html=1;aspect=fixed;" vertex="1" parent="1">
          <mxGeometry x="2635" y="355" width="10" height="10" as="geometry" />
        </mxCell>
        <mxCell id="rwSxF8z0icLIVZ8mAubm-77" value="" style="ellipse;whiteSpace=wrap;html=1;aspect=fixed;" vertex="1" parent="1">
          <mxGeometry x="2215" y="295" width="10" height="10" as="geometry" />
        </mxCell>
        <mxCell id="rwSxF8z0icLIVZ8mAubm-78" value="" style="ellipse;whiteSpace=wrap;html=1;aspect=fixed;" vertex="1" parent="1">
          <mxGeometry x="2155" y="315" width="10" height="10" as="geometry" />
        </mxCell>
        <mxCell id="rwSxF8z0icLIVZ8mAubm-80" value="" style="ellipse;whiteSpace=wrap;html=1;aspect=fixed;" vertex="1" parent="1">
          <mxGeometry x="2875" y="365" width="10" height="10" as="geometry" />
        </mxCell>
        <mxCell id="rwSxF8z0icLIVZ8mAubm-81" value="" style="ellipse;whiteSpace=wrap;html=1;aspect=fixed;" vertex="1" parent="1">
          <mxGeometry x="2934" y="395" width="10" height="10" as="geometry" />
        </mxCell>
        <mxCell id="rwSxF8z0icLIVZ8mAubm-82" value="" style="ellipse;whiteSpace=wrap;html=1;aspect=fixed;" vertex="1" parent="1">
          <mxGeometry x="2995" y="355" width="10" height="10" as="geometry" />
        </mxCell>
        <mxCell id="rwSxF8z0icLIVZ8mAubm-83" value="" style="ellipse;whiteSpace=wrap;html=1;aspect=fixed;" vertex="1" parent="1">
          <mxGeometry x="3055" y="375" width="10" height="10" as="geometry" />
        </mxCell>
        <mxCell id="rwSxF8z0icLIVZ8mAubm-85" value="" style="ellipse;whiteSpace=wrap;html=1;aspect=fixed;" vertex="1" parent="1">
          <mxGeometry x="3175" y="615" width="10" height="10" as="geometry" />
        </mxCell>
        <mxCell id="rwSxF8z0icLIVZ8mAubm-86" value="" style="ellipse;whiteSpace=wrap;html=1;aspect=fixed;" vertex="1" parent="1">
          <mxGeometry x="3225" y="705" width="10" height="10" as="geometry" />
        </mxCell>
        <mxCell id="rwSxF8z0icLIVZ8mAubm-87" value="" style="ellipse;whiteSpace=wrap;html=1;aspect=fixed;" vertex="1" parent="1">
          <mxGeometry x="3115" y="685" width="10" height="10" as="geometry" />
        </mxCell>
        <mxCell id="rwSxF8z0icLIVZ8mAubm-88" value="" style="ellipse;whiteSpace=wrap;html=1;aspect=fixed;" vertex="1" parent="1">
          <mxGeometry x="3295" y="325" width="10" height="10" as="geometry" />
        </mxCell>
        <mxCell id="rwSxF8z0icLIVZ8mAubm-89" value="" style="ellipse;whiteSpace=wrap;html=1;aspect=fixed;" vertex="1" parent="1">
          <mxGeometry x="3355" y="275" width="10" height="10" as="geometry" />
        </mxCell>
        <mxCell id="rwSxF8z0icLIVZ8mAubm-90" value="" style="ellipse;whiteSpace=wrap;html=1;aspect=fixed;" vertex="1" parent="1">
          <mxGeometry x="3415" y="265" width="10" height="10" as="geometry" />
        </mxCell>
        <mxCell id="rwSxF8z0icLIVZ8mAubm-91" value="" style="ellipse;whiteSpace=wrap;html=1;aspect=fixed;" vertex="1" parent="1">
          <mxGeometry x="3475" y="375" width="10" height="10" as="geometry" />
        </mxCell>
        <mxCell id="rwSxF8z0icLIVZ8mAubm-92" value="" style="ellipse;whiteSpace=wrap;html=1;aspect=fixed;" vertex="1" parent="1">
          <mxGeometry x="3535" y="435" width="10" height="10" as="geometry" />
        </mxCell>
        <mxCell id="rwSxF8z0icLIVZ8mAubm-93" value="" style="ellipse;whiteSpace=wrap;html=1;aspect=fixed;" vertex="1" parent="1">
          <mxGeometry x="3595" y="375" width="10" height="10" as="geometry" />
        </mxCell>
        <mxCell id="rwSxF8z0icLIVZ8mAubm-94" value="" style="ellipse;whiteSpace=wrap;html=1;aspect=fixed;" vertex="1" parent="1">
          <mxGeometry x="3655" y="355" width="10" height="10" as="geometry" />
        </mxCell>
        <mxCell id="rwSxF8z0icLIVZ8mAubm-95" value="" style="ellipse;whiteSpace=wrap;html=1;aspect=fixed;" vertex="1" parent="1">
          <mxGeometry x="1825" y="185" width="10" height="10" as="geometry" />
        </mxCell>
        <mxCell id="rwSxF8z0icLIVZ8mAubm-97" value="" style="ellipse;whiteSpace=wrap;html=1;aspect=fixed;" vertex="1" parent="1">
          <mxGeometry x="1895" y="185" width="10" height="10" as="geometry" />
        </mxCell>
        <mxCell id="rwSxF8z0icLIVZ8mAubm-98" value="" style="ellipse;whiteSpace=wrap;html=1;aspect=fixed;" vertex="1" parent="1">
          <mxGeometry x="2895" y="195" width="10" height="10" as="geometry" />
        </mxCell>
        <mxCell id="rwSxF8z0icLIVZ8mAubm-99" value="" style="ellipse;whiteSpace=wrap;html=1;aspect=fixed;" vertex="1" parent="1">
          <mxGeometry x="2825" y="195" width="10" height="10" as="geometry" />
        </mxCell>
        <mxCell id="rwSxF8z0icLIVZ8mAubm-100" value="&lt;font style=&quot;font-size: 30px;&quot;&gt;\(\text{Disparity}\)&lt;/font&gt;" style="text;html=1;strokeColor=none;fillColor=none;align=center;verticalAlign=middle;whiteSpace=wrap;rounded=0;" vertex="1" parent="1">
          <mxGeometry x="2115" y="785" width="270" height="50" as="geometry" />
        </mxCell>
        <mxCell id="rwSxF8z0icLIVZ8mAubm-101" value="&lt;font style=&quot;font-size: 30px;&quot;&gt;\(\text{Disparity}\)&lt;/font&gt;" style="text;html=1;strokeColor=none;fillColor=none;align=center;verticalAlign=middle;whiteSpace=wrap;rounded=0;" vertex="1" parent="1">
          <mxGeometry x="3135" y="785" width="270" height="50" as="geometry" />
        </mxCell>
        <mxCell id="rwSxF8z0icLIVZ8mAubm-102" value="&lt;font style=&quot;font-size: 30px;&quot;&gt;\(\text{Cost }C_V\)&lt;/font&gt;" style="text;html=1;strokeColor=none;fillColor=none;align=center;verticalAlign=middle;whiteSpace=wrap;rounded=0;rotation=-90;" vertex="1" parent="1">
          <mxGeometry x="1640" y="495" width="270" height="50" as="geometry" />
        </mxCell>
        <mxCell id="rwSxF8z0icLIVZ8mAubm-103" value="&lt;font style=&quot;font-size: 30px;&quot;&gt;\(\text{Cost }C_V\)&lt;/font&gt;" style="text;html=1;strokeColor=none;fillColor=none;align=center;verticalAlign=middle;whiteSpace=wrap;rounded=0;rotation=-90;" vertex="1" parent="1">
          <mxGeometry x="2670" y="495" width="270" height="50" as="geometry" />
        </mxCell>
      </root>
    </mxGraphModel>
  </diagram>
</mxfile>
